<svg fill="none" stroke="" viewBox="0 0 24 24" width="24" height="24"><path clip-rule="evenodd" d="M5.77097 9.25496C5.45589 9.32684 5.14981 9.42148 4.85459 9.53744C5.10609 5.65396 8.57244 2.5 12.92 2.5C17.4352 2.5 21 5.90199 21 9.98999C21 12.4217 19.7495 14.592 17.7895 15.9659C17.5624 16.1251 17.4416 16.3966 17.4756 16.6719L17.8654 19.8297L17.8654 19.8304C17.8915 20.051 17.6633 20.1783 17.4985 20.0785L17.4985 20.0784L17.4931 20.0752L13.3031 17.5852C13.1872 17.5163 13.0548 17.48 12.92 17.48L12.9033 17.48C13.2853 16.7224 13.5 15.8743 13.5 14.98C13.5 12.0915 11.3223 9.74835 8.49633 9.20771C8.09262 9.13048 7.67568 9.09003 7.24997 9.09003C6.74084 9.09003 6.2457 9.14666 5.77097 9.25496ZM3.34817 10.3798C3.34226 10.2489 3.33997 10.1191 3.33997 9.98999C3.33997 4.97799 7.67521 1 12.92 1C18.1647 1 22.5 4.97799 22.5 9.98999C22.5 12.7985 21.1307 15.2861 19.018 16.9232L19.3543 19.6481L19.3546 19.6503C19.5278 21.0881 17.979 22.1198 16.7246 21.3634L16.7214 21.3615L12.7107 18.978C12.4279 18.9728 12.148 18.9568 11.8711 18.93C10.7771 20.0778 9.20185 20.8022 7.46148 20.8567L5.02686 22.3025C4.03464 22.9057 2.82485 22.0697 2.95513 20.9624L2.95593 20.9556L2.95596 20.9556L3.15119 19.4172C1.83817 18.3503 1 16.7638 1 14.98C1 13.1028 1.92451 11.4464 3.34817 10.3798ZM4.53946 11.3783L4.53381 11.382L4.5338 11.382C3.28967 12.1769 2.5 13.4986 2.5 14.98C2.5 16.3933 3.22181 17.6617 4.37762 18.4639C4.60727 18.6233 4.72922 18.8971 4.69403 19.1744L4.47702 20.8845L6.86704 19.4651C6.98293 19.3963 7.11522 19.36 7.25 19.36C8.78959 19.36 10.1437 18.6876 10.9879 17.6671C10.9903 17.6641 10.9928 17.661 10.9953 17.6581L10.9987 17.654L10.9987 17.6541C11.631 16.9107 12 15.9804 12 14.98C12 12.984 10.5387 11.247 8.4887 10.7395C8.24812 10.6799 7.99942 10.6373 7.74403 10.6132C7.58192 10.5979 7.41711 10.59 7.24997 10.59C6.86908 10.59 6.50059 10.6306 6.1483 10.7076C5.56116 10.836 5.01902 11.0658 4.53949 11.3783H4.53946Z" fill="#000" fill-rule="evenodd"></path></svg>