<svg fill="#000" stroke="" viewBox="0 0 24 24" width="24" height="24"><path d="M12.9249 19.7626C13.7154 19.1212 14.2074 18.0837 14.3528 16.3956C14.3883 15.983 14.7517 15.6772 15.1643 15.7128C15.577 15.7483 15.8828 16.1117 15.8472 16.5243C15.6826 18.4363 15.0947 19.9337 13.8701 20.9274C12.6662 21.9042 10.9837 22.28 8.89 22.28H8.76C6.45082 22.28 4.63905 21.8222 3.42342 20.6066C2.20779 19.3909 1.75 17.5792 1.75 15.27V8.74999C1.75 6.44081 2.20779 4.62904 3.42342 3.41341C4.63905 2.19778 6.45082 1.73999 8.76 1.73999H8.89C10.9685 1.73999 12.6408 2.1107 13.8423 3.07184C15.0654 4.05032 15.6611 5.52592 15.8368 7.41038C15.8752 7.8228 15.572 8.18831 15.1596 8.22675C14.7472 8.2652 14.3817 7.96203 14.3432 7.5496C14.1889 5.89406 13.6946 4.87466 12.9052 4.24314C12.0942 3.59428 10.8315 3.23999 8.89 3.23999H8.76C6.59918 3.23999 5.28095 3.6772 4.48408 4.47407C3.68721 5.27094 3.25 6.58917 3.25 8.74999L3.25 15.27C3.25 17.4308 3.68721 18.749 4.48408 19.5459C5.28095 20.3428 6.59918 20.78 8.76 20.78H8.89C10.8463 20.78 12.1138 20.4207 12.9249 19.7626Z" fill="#000"></path><path d="M19.6894 12.77L17.6197 14.8397C17.3268 15.1326 17.3268 15.6074 17.6197 15.9003C17.9126 16.1932 18.3875 16.1932 18.6804 15.9003L22.0304 12.5503C22.3232 12.2574 22.3232 11.7825 22.0304 11.4897L18.6804 8.13966C18.3875 7.84676 17.9126 7.84676 17.6197 8.13966C17.3268 8.43255 17.3268 8.90742 17.6197 9.20032L19.6894 11.27L9.00003 11.27C8.58582 11.27 8.25003 11.6058 8.25003 12.02C8.25003 12.4342 8.58582 12.77 9.00003 12.77L19.6894 12.77Z" fill="#000"></path></svg>