<svg fill="#000" stroke="" viewBox="0 0 24 24" width="24" height="24"><path d="M3.99374 8.24C5.96374 -0.419998 18.7937 -0.409997 20.7537 8.25C21.9037 13.33 18.7437 17.63 15.9737 20.29C13.9637 22.23 10.7837 22.23 8.76374 20.29C6.00374 17.63 2.84374 13.32 3.99374 8.24Z" fill="#33383D" opacity="0"></path><path clip-rule="evenodd" d="M12.0001 7.69C10.7434 7.69 9.72457 8.75109 9.72457 10.06C9.72457 11.3689 10.7434 12.43 12.0001 12.43C13.2568 12.43 14.2756 11.3689 14.2756 10.06C14.2756 8.75109 13.2568 7.69 12.0001 7.69ZM8.28436 10.06C8.28436 7.92266 9.94795 6.19 12.0001 6.19C14.0522 6.19 15.7158 7.92266 15.7158 10.06C15.7158 12.1973 14.0522 13.93 12.0001 13.93C9.94795 13.93 8.28436 12.1973 8.28436 10.06Z" fill="#000" fill-rule="evenodd"></path><path d="M12.0032 2.5C8.72267 2.49769 5.51402 4.48032 4.6564 8.40591C3.64148 13.0761 6.41985 17.1262 9.03345 19.7497C10.695 21.411 13.3066 21.409 14.9565 19.7504L14.9578 19.749C17.5809 17.1256 20.3587 13.0854 19.3437 8.4156C18.4906 4.48974 15.284 2.50231 12.0032 2.5ZM20.7484 8.08441C19.7196 3.35029 15.8261 1.00269 12.0042 1C8.18223 0.997312 4.28597 3.33953 3.25197 8.07364C2.0588 13.5631 5.34806 18.1336 8.03429 20.83L8.0352 20.8309C10.2525 23.0489 13.7467 23.0508 15.9563 20.83C18.6523 18.1334 21.9416 13.5739 20.7484 8.08441Z" fill="#000" fill-rule="evenodd"></path></svg>